<?xml version="1.0" standalone="no"?>
<!DOCTYPE svg PUBLIC "-//W3C//DTD SVG 20010904//EN"
 "http://www.w3.org/TR/2001/REC-SVG-20010904/DTD/svg10.dtd">
<svg version="1.0" xmlns="http://www.w3.org/2000/svg"
 width="1160.000000pt" height="1160.000000pt" viewBox="0 0 1160.000000 1160.000000"
 preserveAspectRatio="xMidYMid meet">
<metadata>
Created by potrace 1.11, written by Peter Selinger 2001-2013
</metadata>
<g transform="translate(0.000000,1160.000000) scale(0.100000,-0.100000)"
fill="#000000" stroke="none">
<path d="M5429 10516 c-2 -3 -85 -7 -184 -10 -208 -6 -400 -18 -400 -26 0 -1
-16 -3 -35 -4 -51 -5 -141 -16 -170 -22 -14 -2 -36 -7 -50 -9 -14 -3 -41 -8
-60 -11 -19 -3 -65 -12 -102 -20 -37 -7 -80 -16 -95 -19 -16 -3 -71 -16 -123
-30 -52 -14 -106 -28 -120 -31 -36 -8 -375 -121 -413 -137 -18 -8 -48 -20 -67
-27 -19 -7 -59 -24 -87 -37 -29 -12 -79 -35 -110 -49 -32 -14 -107 -51 -168
-82 -60 -30 -125 -63 -142 -71 -18 -8 -33 -19 -33 -23 0 -4 -5 -8 -11 -8 -43
0 -567 -357 -695 -475 -6 -5 -32 -28 -58 -50 -25 -22 -70 -61 -99 -87 -28 -27
-55 -48 -59 -48 -5 0 -8 -7 -8 -15 0 -8 -4 -15 -8 -15 -8 0 -188 -179 -249
-247 -101 -113 -225 -265 -273 -333 -13 -19 -29 -40 -35 -47 -5 -6 -21 -28
-35 -48 -14 -20 -35 -49 -48 -65 -12 -15 -22 -31 -22 -34 0 -4 -9 -16 -20 -28
-11 -12 -20 -28 -20 -35 0 -7 -4 -13 -10 -13 -5 0 -10 -6 -10 -14 0 -8 -11
-28 -25 -44 -14 -17 -25 -33 -25 -37 0 -4 -8 -19 -19 -33 -18 -26 -40 -66
-104 -182 -42 -78 -157 -308 -157 -316 0 -3 -14 -36 -31 -72 -17 -37 -32 -71
-33 -77 -1 -5 -8 -21 -16 -35 -7 -14 -13 -26 -12 -27 2 -3 2 -5 -3 -20 -2 -8
-20 -55 -32 -83 -3 -8 -7 -18 -8 -22 -2 -5 -4 -10 -5 -13 -3 -5 -3 -6 -15 -50
-4 -16 -11 -34 -15 -40 -4 -5 -11 -23 -15 -40 -12 -45 -12 -45 -15 -47 -1 -2
-3 -10 -5 -18 -9 -36 -46 -166 -52 -180 -3 -8 -7 -22 -8 -30 0 -8 -13 -64 -28
-125 -14 -60 -29 -126 -32 -145 -3 -19 -11 -62 -17 -95 -20 -111 -25 -147 -32
-215 -3 -30 -9 -73 -12 -95 -3 -22 -7 -63 -8 -91 -2 -28 -6 -56 -10 -62 -3 -6
-2 -13 4 -17 6 -4 7 -12 3 -18 -9 -15 -13 -101 -13 -317 0 -197 8 -365 24
-500 2 -19 7 -60 11 -90 3 -30 9 -71 12 -90 3 -19 6 -44 8 -56 2 -11 8 -45 14
-75 6 -30 13 -65 15 -79 2 -14 10 -50 16 -80 7 -30 9 -56 4 -58 -5 -1 -24 -11
-41 -20 -18 -9 -68 -35 -110 -57 -43 -21 -81 -44 -85 -50 -4 -5 -8 -7 -8 -3 0
4 -28 -8 -63 -27 -34 -20 -82 -45 -107 -58 -25 -12 -51 -28 -58 -34 -7 -7 -20
-13 -28 -13 -8 0 -14 -3 -14 -8 0 -4 -12 -13 -28 -20 -15 -7 -52 -28 -82 -47
-46 -28 -52 -35 -35 -40 11 -4 34 -13 51 -20 36 -16 55 -15 78 4 9 7 16 10 16
5 0 -5 4 -4 8 2 4 5 27 22 52 35 25 14 61 35 81 46 68 40 104 57 112 55 4 -1
7 2 7 8 0 5 6 10 14 10 8 0 22 7 30 16 9 8 16 13 16 9 0 -3 26 7 58 23 119 61
165 82 168 79 2 -2 6 -14 8 -28 2 -13 5 -25 7 -26 1 -2 3 -7 4 -13 1 -5 3 -11
5 -12 1 -2 3 -10 5 -18 1 -8 8 -35 16 -60 7 -25 13 -50 15 -57 2 -13 81 -248
91 -273 4 -8 7 -17 8 -20 1 -3 6 -16 12 -30 15 -34 25 -62 29 -79 1 -7 7 -18
13 -24 6 -6 11 -17 11 -23 0 -24 182 -399 234 -483 12 -20 25 -43 29 -51 4 -8
18 -33 32 -55 14 -22 28 -47 32 -55 4 -8 13 -21 20 -28 7 -7 13 -20 13 -28 0
-8 4 -14 8 -14 5 0 15 -12 23 -27 7 -16 20 -38 29 -49 8 -12 22 -32 30 -44 8
-12 20 -28 25 -34 6 -6 28 -38 50 -71 22 -33 44 -65 50 -71 5 -6 21 -26 35
-44 21 -29 77 -98 130 -164 8 -10 26 -31 40 -46 14 -15 50 -56 80 -90 30 -34
100 -107 154 -162 l100 -101 -30 -25 c-39 -33 -153 -134 -292 -259 -14 -13
-29 -23 -33 -23 -5 0 -9 -7 -9 -15 0 -8 -3 -15 -7 -15 -10 0 -71 -54 -306
-274 -48 -44 -48 -45 -53 -120 -2 -42 -3 -76 0 -76 2 0 51 46 109 103 105 103
160 155 302 282 43 39 93 85 111 103 19 17 38 32 43 32 5 0 11 4 13 9 3 7 44
43 167 146 13 11 32 28 42 39 22 23 27 20 114 -59 28 -25 80 -69 117 -97 38
-29 68 -56 68 -60 0 -4 5 -8 12 -8 6 0 21 -9 32 -19 12 -11 59 -47 106 -80
111 -79 107 -76 170 -116 30 -19 60 -38 65 -42 29 -24 228 -136 355 -200 52
-26 97 -51 98 -55 2 -5 8 -8 13 -8 4 0 32 -11 61 -24 131 -59 157 -71 223 -98
39 -16 77 -31 87 -33 9 -2 30 -11 47 -19 17 -9 33 -16 36 -16 19 -1 65 -14 65
-19 0 -4 10 -8 22 -8 13 -1 32 -6 43 -12 20 -9 103 -37 141 -46 10 -3 89 -23
174 -45 85 -21 170 -42 189 -45 19 -3 43 -7 55 -10 24 -6 72 -15 101 -19 197
-31 238 -36 405 -51 286 -25 706 -17 965 20 11 2 44 6 74 10 30 4 63 9 75 11
12 2 32 6 46 8 14 3 41 8 60 11 33 5 203 40 245 51 11 3 29 7 40 9 11 3 30 7
43 10 12 3 31 7 42 9 11 3 25 8 30 11 5 3 18 8 28 10 9 1 37 9 62 16 55 16 52
14 70 22 14 6 180 60 190 63 3 0 14 4 25 9 11 4 43 17 70 27 28 10 59 23 70
27 103 47 134 58 139 53 3 -3 6 0 6 6 0 7 3 11 8 10 6 -2 108 43 142 62 44 26
106 54 113 52 4 -1 7 2 7 7 0 5 17 16 38 25 43 18 81 40 215 121 55 33 107 64
118 70 10 5 19 13 19 17 0 5 7 8 15 8 8 0 15 5 15 10 0 6 6 10 13 10 6 0 28
14 47 30 19 16 38 30 41 30 5 0 61 40 96 70 7 5 15 10 18 10 4 0 12 6 19 13 7
6 25 21 40 32 16 11 33 25 40 30 6 6 34 28 61 50 28 21 60 48 71 59 12 12 41
37 64 56 23 19 72 63 108 97 36 35 69 63 73 63 4 0 9 4 11 9 2 5 48 56 103
113 128 133 154 162 248 278 93 113 160 202 235 309 10 13 24 30 32 39 8 9 15
18 14 21 -1 7 26 51 43 69 7 7 13 17 13 22 0 5 6 15 13 22 6 8 18 25 26 38 8
14 37 63 64 110 86 149 118 210 110 210 -4 0 -3 4 3 8 17 10 127 243 179 377
15 39 35 88 45 110 10 23 28 74 40 115 13 41 27 81 33 88 5 7 7 15 4 19 -4 3
-3 11 2 17 5 6 14 31 21 56 7 25 14 52 16 60 2 8 20 74 39 145 37 142 47 186
60 270 6 35 11 62 24 125 5 25 12 72 16 105 3 33 8 74 11 91 3 17 6 50 9 75 2
24 4 44 5 44 6 0 14 231 14 435 0 296 -10 441 -44 668 -6 37 -13 83 -15 102
-3 19 -8 46 -12 60 -3 14 -7 36 -9 50 -1 14 -3 25 -4 25 -1 0 -3 11 -5 25 -4
37 -74 311 -86 340 -6 14 -13 36 -16 49 -2 14 -18 63 -34 110 -17 47 -31 91
-32 96 -2 6 -6 16 -10 23 -5 6 -6 12 -3 12 5 0 -83 222 -106 267 -9 18 -6 25
23 51 45 40 75 67 198 181 57 53 107 98 112 99 5 2 9 10 9 18 0 8 4 14 9 14
15 0 333 324 441 450 92 107 116 134 125 144 6 6 28 34 50 61 22 28 42 52 45
55 3 3 42 52 85 110 44 58 84 108 90 112 6 4 6 8 1 8 -6 0 -3 6 6 13 8 6 48
62 88 122 39 61 78 117 85 125 8 8 13 17 12 20 -1 5 33 61 43 70 3 3 14 23 25
45 11 22 22 42 25 45 16 16 170 321 170 337 0 7 5 13 10 13 6 0 10 6 10 14 0
8 13 42 29 77 27 60 43 97 46 109 8 31 29 87 36 94 5 6 9 16 9 24 0 8 -27 -21
-60 -64 -187 -245 -226 -291 -384 -449 -159 -158 -190 -187 -376 -345 -25 -21
-55 -47 -67 -57 -12 -11 -34 -28 -49 -39 -14 -10 -36 -28 -48 -39 -11 -11 -31
-27 -43 -35 -12 -8 -91 -67 -175 -130 -84 -64 -165 -123 -179 -132 -14 -9 -33
-23 -41 -30 -7 -7 -21 -17 -30 -23 -77 -49 -134 -89 -136 -96 -2 -5 -10 -9
-18 -9 -8 0 -14 -4 -14 -10 0 -5 -4 -10 -10 -10 -5 0 -47 -27 -94 -59 -46 -33
-87 -57 -90 -53 -3 3 -6 0 -6 -6 0 -7 -7 -12 -15 -12 -8 0 -15 -4 -15 -10 0
-5 -6 -10 -14 -10 -8 0 -16 -4 -18 -8 -1 -4 -25 -21 -53 -37 -27 -15 -52 -31
-55 -35 -3 -4 -25 -17 -50 -31 -25 -13 -51 -30 -59 -37 -11 -11 -26 5 -88 100
-42 62 -95 138 -119 170 -24 31 -44 61 -44 67 0 6 -4 11 -8 11 -5 0 -23 19
-40 43 -17 23 -42 56 -56 72 -14 17 -30 35 -36 42 -5 7 -10 17 -10 23 0 5 -7
10 -15 10 -8 0 -15 4 -15 9 0 5 -25 35 -55 67 -30 33 -55 65 -55 72 0 6 -7 12
-15 12 -8 0 -15 4 -15 8 0 13 -344 352 -357 352 -3 0 -27 19 -53 43 -25 23
-55 49 -66 57 -10 8 -39 31 -64 50 -24 19 -53 43 -65 54 -18 16 -72 55 -114
81 -9 6 -18 13 -21 17 -9 12 -200 138 -209 138 -5 0 -11 4 -13 8 -4 10 -105
72 -118 72 -6 0 -10 5 -10 10 0 6 -4 10 -9 10 -5 0 -47 21 -93 48 -104 59
-435 222 -452 222 -3 0 -29 11 -58 25 -28 14 -58 25 -65 25 -7 0 -21 4 -31 9
-34 18 -97 45 -107 46 -12 0 -81 23 -110 35 -26 11 -139 46 -191 59 -21 5 -71
18 -111 29 -40 11 -74 17 -77 14 -4 -3 -6 -1 -6 4 0 5 -10 10 -22 10 -13 1
-34 4 -48 8 -23 5 -91 19 -150 30 -14 3 -34 7 -45 9 -35 8 -179 29 -220 32
-22 2 -40 4 -40 5 0 2 -16 4 -35 5 -19 2 -62 6 -95 9 -33 4 -120 9 -194 12
-74 3 -138 7 -141 9 -4 3 -9 3 -11 1z"/>
</g>
</svg>
